<svg width="219" height="219" viewBox="0 0 219 219" fill="none" xmlns="http://www.w3.org/2000/svg">
<rect width="218.364" height="218.364" rx="50.1266" fill="url(#paint0_linear_12_2)"/>
<path fill-rule="evenodd" clip-rule="evenodd" d="M85.9459 153.826L85.9461 158.63L85.9801 159.808C86.59 170.333 95.3185 178.681 105.997 178.681L120.206 178.681C123.174 190.211 133.641 198.731 146.098 198.731H166.149L166.148 188.706L186.199 188.706V178.681L166.148 178.68V165.313H186.199V155.288H166.148L166.149 145.263H146.098L145.725 145.265C133.432 145.434 123.144 153.898 120.206 165.313L105.997 165.313L105.217 165.269C101.893 164.882 99.3132 162.057 99.3132 158.63L99.3131 153.826H85.9459ZM146.098 158.63H152.782V185.364H146.098L145.887 185.362C138.936 185.255 133.273 179.842 132.768 172.995L132.731 171.997L132.733 171.786C132.84 164.835 138.253 159.172 145.1 158.667L146.098 158.63Z" fill="white"/>
<path fill-rule="evenodd" clip-rule="evenodd" d="M132.209 39.7882V119.991H52.0062V39.7882H132.209ZM119.846 71.2707L71.5882 66.0918H121.965L119.846 71.2707ZM66.7623 77.3913L115.021 82.5703L117.257 77.3913H66.7623ZM110.195 93.9875L61.9365 88.8086H112.431L110.195 93.9875Z" fill="white"/>
<path d="M138.892 99.9401H152.259V113.307H138.892V99.9401Z" fill="white"/>
<path d="M58.6897 126.674H72.0568V140.041H58.6897V126.674Z" fill="white"/>
<path d="M58.6897 19.7375H72.0568V33.1046H58.6897V19.7375Z" fill="white"/>
<path d="M112.158 126.674H125.525V140.041H112.158V126.674Z" fill="white"/>
<path d="M85.4239 19.7375H98.791V33.1046H85.4239V19.7375Z" fill="white"/>
<path d="M112.158 19.7375H125.525V33.1046H112.158V19.7375Z" fill="white"/>
<path d="M138.892 73.2059H152.259V86.573H138.892V73.2059Z" fill="white"/>
<path d="M31.9556 99.9401H45.3227V113.307H31.9556V99.9401Z" fill="white"/>
<path d="M138.892 46.4717H152.259V59.8388H138.892V46.4717Z" fill="white"/>
<path d="M31.9556 73.2059H45.3227V86.573H31.9556V73.2059Z" fill="white"/>
<path d="M31.9556 46.4717H45.3227V59.8388H31.9556V46.4717Z" fill="white"/>
<path d="M85.4239 126.674H98.791V140.041H85.4239V126.674Z" fill="white"/>
<defs>
<linearGradient id="paint0_linear_12_2" x1="109.182" y1="0" x2="109.182" y2="218.364" gradientUnits="userSpaceOnUse">
<stop stop-color="#00C78F"/>
<stop offset="1" stop-color="#005B40"/>
</linearGradient>
</defs>
</svg>
