<svg width="155" height="159" viewBox="0 0 155 159" fill="none" xmlns="http://www.w3.org/2000/svg">
<path fill-rule="evenodd" clip-rule="evenodd" d="M80.0203 15.8409C79.5406 14.7736 78.7631 13.8673 77.7812 13.2307C76.7994 12.5941 75.6547 12.2542 74.4845 12.2517H68.9791L73.0245 2.3359C73.3138 1.6071 73.4588 0.830999 73.4535 0.0505371H100.253V80.2531H20.0506V0.0505371H47.3524L38.4103 22.198C38.0585 23.1067 37.9301 24.0866 38.036 25.0553C38.1419 26.0239 38.4789 26.953 39.0187 27.7642C39.5957 28.6111 40.3716 29.3034 41.2784 29.7807C42.1852 30.258 43.1952 30.5055 44.2199 30.5017H52.6149L47.1095 51.0026C46.9261 51.6716 46.9769 52.3833 47.2535 53.0195C47.5301 53.6558 48.0159 54.1783 48.6303 54.5005C49.1046 54.7279 49.6252 54.8424 50.1512 54.8351C50.5905 54.8351 51.0246 54.7399 51.4237 54.5562C51.8228 54.3724 52.1773 54.1044 52.4628 53.7705L79.2295 22.2284C79.9454 21.3442 80.3991 20.2769 80.5388 19.1478C80.6786 18.0187 80.499 16.873 80.0203 15.8409ZM93 60H71V71H93V60Z" fill="#018E65"/>
<path fill-rule="evenodd" clip-rule="evenodd" d="M53.9905 118.892L53.9903 114.089H67.3575L67.3576 118.892C67.3576 122.32 69.9377 125.145 73.2617 125.531L74.0411 125.576H88.2505C91.1886 114.161 101.477 105.696 113.769 105.528L114.142 105.525H134.193L134.193 115.551H154.244V125.576H134.193V138.943L154.244 138.943V148.968L134.193 148.968L134.193 158.994H114.142C101.685 158.994 91.2185 150.474 88.2506 138.943L74.0411 138.943C63.363 138.943 54.6344 130.596 54.0245 120.07L53.9905 118.892ZM120.826 118.892H114.142L113.145 118.929C106.297 119.434 100.885 125.098 100.777 132.048L100.775 132.259L100.812 133.257C101.317 140.104 106.981 145.517 113.931 145.625L114.142 145.626H120.826V118.892Z" fill="#018E65"/>
<path d="M106.937 60.2024H120.304V73.5695H106.937V60.2024Z" fill="#018E65"/>
<path d="M40.1013 86.9366H26.7342V100.304H40.1013V86.9366Z" fill="#018E65"/>
<path d="M80.2025 86.9366H93.5696V100.304H80.2025V86.9366Z" fill="#018E65"/>
<path d="M120.304 33.4683H106.937V46.8353H120.304V33.4683Z" fill="#018E65"/>
<path d="M0 60.2024H13.3671V73.5695H0V60.2024Z" fill="#018E65"/>
<path d="M120.304 6.73408H106.937V20.1012H120.304V6.73408Z" fill="#018E65"/>
<path d="M0 33.4683H13.3671V46.8353H0V33.4683Z" fill="#018E65"/>
<path d="M13.3671 6.73408H0V20.1012H13.3671V6.73408Z" fill="#018E65"/>
<path d="M53.4684 86.9366H66.8354V100.304H53.4684V86.9366Z" fill="#018E65"/>
</svg>
